# xmcd
#
# Track frame offsets:
# 185
# 23057
# 46037
# 67532
# 82685
# 106985
# 114145
# 149225
# 166487
#
# Disc length: 2266 seconds
#
#
# Revision: 1
# Processed by: cddbd v1.4PL0 Copyright (c) Steve Scherf et al.
# Submitted via: FreeRIP 2.30 
#
DISCID=6208d809
DTITLE=Furry Lewis - Fourth and Beale (Lucky Seven CD 9202)
DYEAR=1900
DGENRE=
TTITLE0=Goin' To Brownsville
TTITLE1=John Henry
TTITLE2=Casey Jones
TTITLE3=St. Louis Blues
TTITLE4=Judge Boushe Blues
TTITLE5=Just A Little Fun
TTITLE6=Goin' Back To Gary
TTITLE7=When The Saints Go Marchin' Home
TTITLE8=A Dog Named Blue
EXTD=
EXTT0=
EXTT1=
EXTT2=
EXTT3=
EXTT4=
EXTT5=
EXTT6=
EXTT7=
EXTT8=
PLAYORDER=
